<?xml version="1.0" encoding="utf-8"?>
<!-- Generator: Adobe Illustrator 24.0.1, SVG Export Plug-In . SVG Version: 6.00 Build 0)  -->
<svg version="1.1" id="Layer_1" xmlns="http://www.w3.org/2000/svg" xmlns:xlink="http://www.w3.org/1999/xlink" x="0px" y="0px"
	 viewBox="0 0 300 300" style="enable-background:new 0 0 300 300;" xml:space="preserve">
<style type="text/css">
	.st0{fill-rule:evenodd;clip-rule:evenodd;fill:#FCFCFC;stroke:#000000;stroke-miterlimit:10;}
</style>
<path class="st0" d="M64.1,36c-16.8,0-29.2,14.7-28.6,30.6c0.5,15.3-0.2,35.1-5.1,51.2c-5,16.2-13.5,26.4-27.3,27.8v14.9
	c13.8,1.3,22.3,11.6,27.3,27.8c5,16.1,5.7,35.9,5.1,51.2C34.9,255.3,47.3,270,64.1,270h171.7c16.8,0,29.2-14.7,28.6-30.6
	c-0.5-15.3,0.2-35.1,5.1-51.2c5-16.2,13.4-26.4,27.2-27.8v-14.9c-13.8-1.3-22.2-11.6-27.2-27.8c-5-16.1-5.7-35.9-5.1-51.2
	C265,50.7,252.6,36,235.8,36L64.1,36L64.1,36z M202.2,180c0,21.9-16.3,35.2-43.5,35.2h-46.2c-2.7,0-5-2.2-5-5l0,0V95.7
	c0-2.7,2.2-5,5-5h45.9c22.6,0,37.5,12.2,37.5,31.1c0,13.2-10,25-22.7,27.1v0.7C190.6,151.5,202.2,163.5,202.2,180L202.2,180z
	 M153.7,106.5h-26.3v37.2h22.2c17.1,0,26.6-6.9,26.6-19.2C176.2,112.9,168,106.5,153.7,106.5L153.7,106.5z M127.4,158.5v41h27.3
	c17.8,0,27.3-7.2,27.3-20.6s-9.7-20.4-28.4-20.4L127.4,158.5L127.4,158.5z"/>
</svg>
