<?xml version="1.0" encoding="utf-8"?>
<!-- Generator: Adobe Illustrator 24.0.1, SVG Export Plug-In . SVG Version: 6.00 Build 0)  -->
<svg version="1.1" id="Layer_1" xmlns="http://www.w3.org/2000/svg" xmlns:xlink="http://www.w3.org/1999/xlink" x="0px" y="0px"
	 viewBox="0 0 300 300" style="enable-background:new 0 0 300 300;" xml:space="preserve">
<style type="text/css">
	.st0{fill:#F9F7F7;stroke:#000000;stroke-miterlimit:10;}
</style>
<g>
	<g id="c133de6af664cd4f011a55de6b001b19_1_">
		<path class="st0" d="M265.7,32.2l-20.8,225.2l-90.1,24.3l-90.1-24.3L44,32.2H265.7z M223.8,78h-69.1H84.5l3.4,27.2h66.9h3.8
			l-3.8,1.6l-64.5,26.9l2.1,26.6l62.3,0.2l33.4,0.1l-2.1,35.4l-31.3,8.8v0l-0.3,0.1l-30.2-7.6l-1.8-22h-0.1h-28h-0.1l3.7,42.5
			l56.8,16.8v0l0.1,0l56.5-16.5l7.3-84.3h-64h-0.2l0.2-0.1l66.3-28.3L223.8,78z"/>
	</g>
</g>
</svg>
