<?xml version="1.0" encoding="utf-8"?>
<!-- Generator: Adobe Illustrator 24.0.1, SVG Export Plug-In . SVG Version: 6.00 Build 0)  -->
<svg version="1.1" id="Layer_1" xmlns="http://www.w3.org/2000/svg" xmlns:xlink="http://www.w3.org/1999/xlink" x="0px" y="0px"
	 viewBox="0 0 300 300" style="enable-background:new 0 0 300 300;" xml:space="preserve">
<style type="text/css">
	.st0{fill-rule:evenodd;clip-rule:evenodd;fill:#FAFCFC;stroke:#000000;stroke-width:0.25;stroke-miterlimit:10;}
	.st1{fill:#FAFCFC;stroke:#000000;stroke-width:0.25;stroke-miterlimit:10;}
</style>
<g>
	<g>
		<path class="st0" d="M145.8,28.8c-42.7,1.7-77.5,36.2-79.6,78.9c-1.8,38.4,22.5,71.4,56.7,82.9c4.1,0.8,5.7-1.8,5.7-3.9
			c0-2,0-8.6-0.2-15.4c-23,5.1-27.9-9.8-27.9-9.8c-3.7-9.6-9.2-12.1-9.2-12.1c-7.6-5.1,0.6-5.1,0.6-5.1c8.4,0.6,12.7,8.6,12.7,8.6
			c7.4,12.7,19.5,9,24.2,6.8c0.8-5.5,2.9-9,5.3-11.1c-18.5-2.1-37.9-9.2-37.9-41c0-9,3.3-16.4,8.6-22.3c-0.8-2.1-3.7-10.5,0.8-22.1
			c0,0,7-2.1,22.8,8.6c6.6-1.8,13.7-2.7,20.7-2.7s14.3,1,20.9,2.7c15.8-10.7,22.8-8.6,22.8-8.6c4.5,11.5,1.8,19.9,0.8,22.1
			c5.3,5.9,8.6,13.3,8.6,22.3c0,31.8-19.5,38.9-37.9,41c2.9,2.5,5.7,7.6,5.7,15.4c0,11.1,0,20.1,0,22.8c0,2.1,1.6,4.9,5.7,3.9
			c33-10.9,56.8-42.2,56.8-78.9C232,64.9,193.2,26.9,145.8,28.8z"/>
		<path class="st1" d="M97.6,148c-0.2,0.4-0.8,0.6-1.4,0.2c-0.6-0.2-1-0.8-0.8-1.2c0.2-0.4,0.8-0.6,1.4-0.2
			C97.4,147,97.8,147.6,97.6,148L97.6,148z M100.9,151.7c-0.4,0.4-1.2,0.2-1.8-0.4c-0.6-0.6-0.6-1.4-0.2-1.8
			c0.4-0.4,1.2-0.2,1.8,0.4C101.1,150.6,101.3,151.3,100.9,151.7L100.9,151.7z M104.2,156.6c-0.6,0.4-1.4,0-2-0.8
			c-0.6-0.8-0.6-1.6,0-2s1.4,0,2,0.8C104.6,155.2,104.6,156.2,104.2,156.6L104.2,156.6z M108.7,161.1c-0.4,0.6-1.4,0.4-2.1-0.4
			c-0.8-0.6-1-1.6-0.4-2.1c0.4-0.6,1.4-0.4,2.1,0.4C108.9,159.7,109.1,160.7,108.7,161.1L108.7,161.1z M114.8,163.8
			c-0.2,0.6-1.2,1-2.1,0.6c-1-0.2-1.6-1-1.4-1.8c0.2-0.6,1.2-1,2.1-0.6C114.4,162.5,115,163.2,114.8,163.8L114.8,163.8z
			 M121.6,164.4c0,0.6-0.8,1.2-1.8,1.2c-1,0-1.8-0.6-1.8-1.2c0-0.8,0.8-1.2,1.8-1.4C120.8,163.1,121.6,163.6,121.6,164.4z
			 M128.1,163.2c0.2,0.6-0.6,1.4-1.6,1.6c-1,0.2-2-0.2-2-1c-0.2-0.6,0.6-1.4,1.6-1.6C126.9,162.3,127.9,162.7,128.1,163.2
			L128.1,163.2z"/>
	</g>
	<g>
		<path class="st1" d="M73.2,237.7H51.9c-0.5,0-1,0.4-1,1v9.8c0,0.5,0.4,1,1,1h8.8v12.3c0,0-1.7,0.6-6.7,0.6
			c-6,0-14.1-2.1-14.1-19.8s8.5-20,16.6-20c6.9,0,10,1.1,11.9,1.7c0.6,0.2,1.2-0.4,1.2-0.9l2.3-9.6c0-0.4-0.2-0.6-0.4-0.8
			c-0.8-0.6-5.6-3.2-17.5-3.2c-13.7,0-27.9,5.7-27.9,33.4c0,27.6,16.2,31.7,29.8,31.7c11.4,0,18.1-4.7,18.1-4.7
			c0.2-0.2,0.4-0.6,0.4-0.8v-30.8C74.1,238.1,73.5,237.7,73.2,237.7L73.2,237.7z M178.8,210.4H167c-0.6,0-0.9,0.4-0.9,1l0,0v22.5
			h-17.6v-22.4c0-0.6-0.4-1-1-1l0,0h-11.7c-0.6,0-1,0.4-1,1l0,0v62.5c0,0.5,0.4,1,1,1h11.8c0.6,0,0.9-0.4,0.9-1l0,0v-26.4h17.6v26.4
			c0,0.5,0.4,1,1,1h11.7c0.6,0,1-0.4,1-1l0,0v-62.5C179.7,210.9,179.3,210.4,178.8,210.4z M87.2,212.3c-4.1,0-7.6,3.5-7.6,7.6
			c0,4.3,3.3,7.6,7.6,7.6c4.1,0,7.6-3.5,7.6-7.6C94.9,215.8,91.5,212.3,87.2,212.3z M92.9,231.9H81.1c-0.5,0-1,0.4-1,1v40.4
			c0,1.2,0.8,1.5,1.8,1.5h10.5c1.2,0,1.4-0.6,1.4-1.5v-12.1V233C93.8,232.5,93.4,231.9,92.9,231.9L92.9,231.9L92.9,231.9z
			 M223.9,231.9h-10c-0.5,0-0.9,0.4-0.9,1l0,0v30.3c0,0-2.7,2.1-6.8,2.1c-4,0-4.9-2-4.9-6.1v-26.4c0-0.6-0.4-1-0.9-1h-2.1h-11.7
			c-0.5,0-1,0.4-1,1v28c0,12.2,6.7,15.1,15.9,15.1c7.5,0,13.6-4.3,13.6-4.3s0.4,2.3,0.4,2.5c0.2,0.2,0.4,0.6,0.8,0.6h7.5
			c0.6,0,1-0.4,1-1l0,0v-41C224.8,232.3,224.4,231.9,223.9,231.9L223.9,231.9z M257.2,229.6c-6.6,0-11.1,3-11.1,3v-21.2
			c0-0.6-0.4-1-1-1l0,0h-11.7c-0.6,0-1,0.4-1,1l0,0v62.4c0,0.6,0.4,1,1,1l0,0h8.2c0.4,0,0.6-0.2,0.8-0.6c0.2-0.4,0.6-3,0.6-3
			s4.9,4.6,13.9,4.6c10.7,0,16.8-5.6,16.8-24.8S263.9,229.6,257.2,229.6L257.2,229.6z M252.9,264.4c-4.1-0.2-6.8-2-6.8-2v-19.5
			c0,0,2.7-1.6,6.1-2c4.3-0.4,8.2,1,8.2,10.9C260.4,262.6,258.6,264.6,252.9,264.4L252.9,264.4z M128.2,263.3
			c-0.6,0-1.8,0.2-3.1,0.2c-4.3,0-5.9-2-5.9-4.7v-17.2h8.8c0.6,0,1-0.4,1-1V240v-9.1c0-0.6-0.4-0.9-1-0.9l0,0h-8.8v-11.2
			c0-0.4-0.2-0.6-0.8-0.6h-12.1c-0.4,0-0.8,0.4-0.8,0.8v11.7c0,0-6.5,1.3-7,1.5c-0.4,0.2-0.8,0.6-0.8,1v7.5c0,0.6,0.4,1,1.1,1h0.5
			h6.2v18.2c0,13.5,9.6,14.8,15.8,14.8c2.9,0,6.4-1,7-1.2c0.4-0.2,0.6-0.6,0.6-1l0-8.4C129.2,263.7,128.8,263.3,128.2,263.3
			L128.2,263.3z"/>
	</g>
</g>
</svg>
