<?xml version="1.0" encoding="utf-8"?>
<!-- Generator: Adobe Illustrator 24.0.1, SVG Export Plug-In . SVG Version: 6.00 Build 0)  -->
<svg version="1.1" id="Layer_1" xmlns="http://www.w3.org/2000/svg" xmlns:xlink="http://www.w3.org/1999/xlink" x="0px" y="0px"
	 viewBox="0 0 300 300" style="enable-background:new 0 0 300 300;" xml:space="preserve">
<style type="text/css">
	.st0{fill:#FCFAFA;stroke:#000000;stroke-miterlimit:10;}
</style>
<g>
	<g id="c133de6af664cd4f011a55de6b0011b2_1_">
		<path class="st0" d="M40.5,32.6l19.9,223.6l89.4,24.8l89.7-24.9l20-223.5H40.5z M217.9,85.7l-1.2,13.9l-0.5,6.2H216h-66h-0.1
			h-38.7l2.5,28.1h36.2h0.1h56.3h7.4l-0.7,7.4l-6.4,72.2l-0.4,4.6L150,233.5v0l-0.1,0L93.7,218l-3.8-43.1h12.7h14.8l2,21.9l30.5,8.2
			l0,0v0l30.6-8.3l3.2-35.6H150h-0.1H88.6l-6.7-75.6l-0.7-7.4h68.7h0.1h68.6L217.9,85.7z"/>
	</g>
</g>
</svg>
