<?xml version="1.0" encoding="utf-8"?>
<!-- Generator: Adobe Illustrator 24.0.1, SVG Export Plug-In . SVG Version: 6.00 Build 0)  -->
<svg version="1.1" id="Layer_1" xmlns="http://www.w3.org/2000/svg" xmlns:xlink="http://www.w3.org/1999/xlink" x="0px" y="0px"
	 viewBox="0 0 300 300" style="enable-background:new 0 0 300 300;" xml:space="preserve">
<style type="text/css">
	.st0{fill-rule:evenodd;clip-rule:evenodd;fill:#FCFBF7;stroke:#000000;stroke-miterlimit:10;}
</style>
<g>
	<path class="st0" d="M45,38h219v219H45V38z M212.5,221.7c-10.2,0-15.9-5.3-20.3-12.5l-16.7,9.7c6,11.9,18.4,21,37.5,21
		c19.5,0,34.1-10.1,34.1-28.7c0-17.2-9.9-24.8-27.4-32.3l-5.1-2.2c-8.8-3.8-12.7-6.3-12.7-12.5c0-5,3.8-8.8,9.8-8.8
		c5.9,0,9.7,2.5,13.2,8.8l16-10.3c-6.8-11.9-16.2-16.5-29.3-16.5c-18.4,0-30.1,11.8-30.1,27.2c0,16.8,9.9,24.7,24.7,31l5.1,2.2
		c9.4,4.1,15,6.6,15,13.7C226.5,217.4,221.1,221.7,212.5,221.7z M132.8,221.6c-7.1,0-10-4.8-13.2-10.6l-16.7,10.1
		c4.8,10.3,14.4,18.8,30.8,18.8c18.2,0,30.7-9.7,30.7-31v-70.3h-20.5v70C143.8,219,139.6,221.6,132.8,221.6z"/>
</g>
</svg>
