<?xml version="1.0" encoding="utf-8"?>
<!-- Generator: Adobe Illustrator 24.0.1, SVG Export Plug-In . SVG Version: 6.00 Build 0)  -->
<svg version="1.1" id="Layer_1" xmlns="http://www.w3.org/2000/svg" xmlns:xlink="http://www.w3.org/1999/xlink" x="0px" y="0px"
	 viewBox="0 0 300 300" style="enable-background:new 0 0 300 300;" xml:space="preserve">
<style type="text/css">
	.st0{fill:#F9F9F9;stroke:#000000;stroke-miterlimit:10;}
</style>
<g>
	<g>
		<circle class="st0" cx="151.8" cy="111.6" r="19.6"/>
		<path class="st0" d="M151.8,183.6c15.4,14.9,30.5,23.8,42.7,23.8c4,0,7.8-0.8,10.9-2.7c10.9-6.3,14.9-22.1,11.2-44.6
			c-0.6-4-1.5-8-2.5-12.2c4.2-1.3,8-2.5,11.8-3.8c21.3-8.2,33.1-19.6,33.1-32c0-12.6-11.8-24-33.1-32c-3.8-1.5-7.6-2.7-11.8-3.8
			c1.1-4.2,1.9-8.2,2.5-12.2c3.6-23-0.4-39-11.4-45.3c-3.2-1.9-6.9-2.7-10.9-2.7c-12,0-27.4,8.8-42.7,23.8
			C136.4,24.8,121.3,16,109.1,16c-4,0-7.8,0.8-10.9,2.7c-10.9,6.3-14.9,22.1-11.2,44.6c0.6,4,1.5,8,2.5,12.2
			c-4.2,1.3-8,2.5-11.8,3.8c-21.3,8.2-33.1,19.6-33.1,32c0,12.6,11.8,24,33.1,32c3.8,1.5,7.6,2.7,11.8,3.8
			c-1.1,4.2-1.9,8.2-2.5,12.2c-3.6,22.5,0.4,38.5,11.2,44.6c3.2,1.9,6.9,2.7,10.9,2.7C121.3,207.2,136.4,198.3,151.8,183.6
			L151.8,183.6z M140,155.2c3.8,0.2,7.8,0.2,11.8,0.2s8,0,11.8-0.2c-3.8,5.1-7.8,9.7-11.8,14.1C147.8,164.9,143.8,160.2,140,155.2z
			 M113.9,133.5c2.1,3.6,4,6.9,6.3,10.3c-6.5-0.8-12.6-1.9-18.5-3.2c1.9-5.7,4-11.6,6.5-17.5C109.9,126.5,111.8,130.1,113.9,133.5z
			 M101.7,82.7c5.9-1.3,12-2.3,18.5-3.2c-2.1,3.4-4.2,6.7-6.3,10.3c-2.1,3.6-4,6.9-5.7,10.5C105.5,94.3,103.4,88.4,101.7,82.7z
			 M113.3,111.6c2.7-5.7,5.7-11.4,9.1-17.1c3.2-5.5,6.7-10.9,10.3-16.4c6.3-0.4,12.6-0.6,19.2-0.6c6.7,0,13.1,0.2,19.2,0.6
			c3.8,5.5,7.2,10.9,10.3,16.4c3.4,5.7,6.3,11.4,9.1,17.1c-2.7,5.7-5.7,11.4-9.1,17.1c-3.2,5.5-6.7,10.9-10.3,16.4
			c-6.3,0.4-12.6,0.6-19.2,0.6c-6.7,0-13.1-0.2-19.2-0.6c-3.8-5.5-7.2-10.9-10.3-16.4C119,123,116,117.3,113.3,111.6z M195.6,100.2
			l-5.7-10.5c-2.1-3.6-4-6.9-6.3-10.3c6.5,0.8,12.6,1.9,18.5,3.2C200.2,88.4,198.1,94.3,195.6,100.2z M195.6,123
			c2.5,5.9,4.6,11.8,6.5,17.5c-5.9,1.3-12,2.3-18.5,3.2c2.1-3.4,4.2-6.7,6.3-10.3C191.8,130.1,193.7,126.5,195.6,123z M200.4,196
			c-1.7,1.1-3.8,1.5-6.1,1.5c-10.3,0-23.2-8.4-35.8-21.1c6.1-6.5,12-13.9,17.9-22.1c9.9-0.8,19.4-2.3,28.2-4.4
			c1.1,3.8,1.7,7.6,2.3,11.4C209.9,179.2,207.6,192,200.4,196z M211.4,85.1c23.6,6.7,37.7,17.1,37.7,26.5c0,8.2-9.7,16.4-26.7,23
			c-3.4,1.3-7.2,2.5-10.9,3.6c-2.7-8.6-6.1-17.5-10.3-26.5C205.3,102.5,208.9,93.7,211.4,85.1z M194.5,25.7c2.3,0,4.2,0.4,6.1,1.5
			c6.9,4,9.5,16.6,6.5,34.7c-0.6,3.6-1.5,7.4-2.3,11.4c-8.8-1.9-18.3-3.4-28.2-4.4c-5.7-8.2-11.8-15.6-17.9-22.1
			C171.4,34.3,184.2,25.7,194.5,25.7z M163.6,68c-3.8-0.2-7.8-0.2-11.8-0.2s-8,0-11.8,0.2c3.8-5.1,7.8-9.7,11.8-14.1
			C155.8,58.3,159.8,63.2,163.6,68z M103.2,27.2c1.7-1.1,3.8-1.5,6.1-1.5c10.3,0,23.2,8.4,35.8,21.1c-6.1,6.5-12,13.9-17.9,22.1
			c-9.9,0.8-19.4,2.3-28.2,4.4c-1.1-3.8-1.7-7.6-2.3-11.4C93.7,44,96,31.4,103.2,27.2z M92.2,138.1c-23.6-6.7-37.7-17.1-37.7-26.5
			c0-8.2,9.7-16.4,26.7-23c3.4-1.3,7.2-2.5,10.9-3.6c2.7,8.6,6.1,17.5,10.3,26.5C98.3,120.6,94.7,129.7,92.2,138.1z M96.6,161.3
			c0.6-3.6,1.5-7.4,2.3-11.4c8.8,1.9,18.3,3.4,28.2,4.4c5.7,8.2,11.8,15.6,17.9,22.1c-12.6,12.4-25.5,21.1-35.8,21.1
			c-2.3,0-4.2-0.4-6.1-1.5C96,192,93.7,179.2,96.6,161.3z M88,249c4.7-5.8,4.9-12.2,2.4-18.6c-2.6-6.4-7.9-9.4-14.5-9.6
			c-7.9-0.2-16,0-23.9,0h-1.6v54.7h6.3v-21.1H67c1.3,0,2.4,0.4,3.1,1.5l13.2,20.5c0.2,0.4,0.9,1.1,1.3,1.1h7.7
			c-5.1-7.9-10-15.4-15.2-23.1C81.6,253.9,85.5,252.4,88,249z M56.6,248v-20.8h2.3c4.8,0,9.9-0.2,14.7,0.2c5.7,0.2,9.7,4.6,9.7,10.3
			c0,5.7-4.6,10.1-10.3,10.3C68,248.2,62.9,248,56.6,248z M138.3,250.9c-3.4-14.7-16.8-18.5-27.2-13.9c-8,3.6-11.6,10.5-11.8,19.2
			c-0.2,6.5,1.7,12.4,6.7,16.8c5.7,5.1,12.6,5.7,19.8,4.4c4-0.8,7.6-2.7,10.3-5.7c-1.1-1.5-2.1-2.9-3.2-4.2
			c-5.9,5.1-12.4,6.7-19.6,3.4c-4.6-2.3-6.9-8-7.4-12.2h32.6V256C138.9,254.1,138.7,252.4,138.3,250.9z M106.7,254.5
			c-0.6-6.3,5.7-13.1,12.6-13.1c8-0.2,13.1,4.6,13.3,13.1H106.7z M170.9,236c-3.2-0.6-6.5-0.8-9.7-0.6c-5.1,0.4-9.5,2.7-13.1,6.5
			c1.1,1.5,1.9,2.9,3.2,4.6c0.4-0.4,0.8-0.8,1.3-1.1c3.4-3.2,7.4-4.8,12.2-4.4c3.8,0.2,7.4,1.5,8.4,5.3c0.8,2.9,0.6,6.1,0.8,9.3
			c-0.6,0-0.8-0.2-1.1-0.4c-5.1-4.2-10.7-5.1-16.8-3.6c-5.7,1.5-9.3,5.9-9.7,11.6c-0.4,6.5,2.5,11.4,8.2,13.7
			c3.6,1.5,7.6,1.5,11.4,0.6c2.9-0.6,4.2-2.3,8.4-4.6v2.7h5.9c0-8.4,0.2-18.7,0-28.4C180.4,241,176.8,237.2,170.9,236z M174.3,261.9
			c-0.2,0.6,0,1.3,0,1.9c0,4.4-1.1,5.9-5.3,7.6c-2.9,1.1-6.1,1.5-9.3,0.4c-3.6-1.1-6.1-4.2-6.1-7.8c-0.2-3.6,2.1-7.2,5.7-8.2
			c4.8-1.7,9.3-0.6,13.3,2.3C173.9,259.2,174.8,260.2,174.3,261.9z M207.2,241.1c5.5-1.7,10.5-0.6,14.3,4l0.6,0.4
			c1.5-1.3,2.7-2.5,4.4-4c-0.6-0.6-0.8-1.1-1.3-1.7c-6.1-6.5-18.1-7.4-25.5-2.1c-10.3,7.6-10.1,22.3-5.1,30.1
			c4.8,7.4,11.8,9.9,20,8.8c4.8-0.6,8.8-2.9,12-6.9c-1.5-1.3-2.9-2.5-4.4-4c-0.4,0.4-0.6,0.6-0.8,1.1c-5.7,6.3-15.2,5.7-20.2-1.1
			c-2.9-4-3.6-8.6-2.7-13.3C199,247.2,201.7,243,207.2,241.1L207.2,241.1z M251,269.7c-0.4,0.2-0.6,0.4-0.6,0.4
			c-1.7,1.3-3.4,1.5-5.3,0.8c-1.9-0.8-2.1-2.5-3.2-4.2v-24c0.9-0.4,1.1-0.9,1.1-0.9h7.3v-6.3h-8.4V225h-6.3v10.5h-4.8
			c0,0-1.1,0.5-1.1,0.9c-0.2,1.5,0,2.5,0,5.4h5.9V268c0.9,3.4,1.7,6.3,4.7,8c3.2,1.9,9.3,1.5,12-0.8c0.4-0.2,0.6-1.1,0.6-1.3
			C252.2,272.7,251.6,271.2,251,269.7z"/>
	</g>
</g>
</svg>
