<?xml version="1.0" encoding="utf-8"?>
<!-- Generator: Adobe Illustrator 24.0.1, SVG Export Plug-In . SVG Version: 6.00 Build 0)  -->
<svg version="1.1" id="Layer_1" xmlns="http://www.w3.org/2000/svg" xmlns:xlink="http://www.w3.org/1999/xlink" x="0px" y="0px"
	 viewBox="0 0 300 300" style="enable-background:new 0 0 300 300;" xml:space="preserve">
<style type="text/css">
	.st0{fill:#FAFBFC;stroke:#000000;stroke-miterlimit:10;}
	.st1{fill-rule:evenodd;clip-rule:evenodd;fill:#FCFCFC;stroke:#000000;stroke-miterlimit:10;}
</style>
<g>
	<path class="st0" d="M195.2,149.7c1-1.5,1.5-3.6,1.5-6.3c0-2.7-0.5-4.8-1.5-6.3c-1-1.5-2.5-2.2-4.7-2.2c-2.1,0-3.6,0.7-4.6,2.2
		c-1,1.5-1.5,3.6-1.5,6.3c0,2.7,0.5,4.8,1.5,6.3c1,1.5,2.5,2.2,4.6,2.2C192.7,151.9,194.2,151.2,195.2,149.7z"/>
	<path class="st0" d="M250.6,137c-0.7,1-1.1,2.2-1.3,3.7h11.6c-0.1-1.4-0.4-2.7-1.1-3.7c-1-1.5-2.4-2.3-4.5-2.3
		S251.6,135.6,250.6,137z"/>
	<path class="st0" d="M120.8,137c-0.7,1-1.1,2.2-1.3,3.7H131c-0.1-1.4-0.4-2.7-1.1-3.7c-1-1.5-2.4-2.3-4.5-2.3
		C123.3,134.8,121.8,135.6,120.8,137z"/>
	<path class="st0" d="M83.4,150.2c0.2,0.3,0.3,0.4,0.9,0.9c0,0,1.5,1.1,4.8,0.9c2.3-0.1,4.4-0.6,4.4-0.6v-7.2c0,0-2.1-0.3-4.4-0.4
		c-3.3,0-4.7,1.1-4.7,1.1c-1,0.7-1.4,1.7-1.4,3.1C82.9,149,83.1,149.7,83.4,150.2z"/>
	<path class="st1" d="M166.8,60c-13.9,0-26.4,5.7-35.5,14.8C121.4,62.1,105.8,54,88.2,54c-30,0-54.3,23.6-54.3,52.7
		c0,7.5,1.6,14.6,4.5,21C24.4,135.7,15,150.5,15,167.5c0,25.3,20.9,45.9,46.7,45.9c3.3,0,6.5-0.3,9.6-1c7.1,18.7,25.5,32,47.2,32
		c20.8,0,38.6-12.3,46.3-29.8c5.8,2.8,12.4,4.3,19.3,4.3c16.5,0,30.9-8.9,38.5-22c3.9,0.8,7.9,1.2,11.9,1.2
		c33.3,0,60.3-26.5,60.3-59.1c0-32.7-27-59.1-60.3-59.1c-8.7,0-16.9,1.8-24.4,5C201.4,70,185.3,60,166.8,60z M180,120.6
		c0.6,0.1,1.1,0.2,1.6,0.4c0.1,0,0.4,0.2,0.3,0.6l-1.2,3.3c-0.1,0.2-0.2,0.4-0.7,0.2c-0.1,0-0.3-0.1-0.8-0.2
		c-0.4-0.1-0.8-0.1-1.3-0.1c-0.6,0-1.2,0.1-1.7,0.2c-0.5,0.2-1,0.4-1.4,0.8c-0.4,0.4-0.9,1-1.1,1.7c-0.5,1.4-0.8,2.9-0.8,3.4l0,0.2
		h5.2c0.4,0,0.6,0.2,0.5,0.5l-0.6,3.3c-0.1,0.5-0.5,0.5-0.5,0.3H172l-3.7,20.2c-0.4,2.1-0.9,3.9-1.4,5.3c-0.6,1.5-1.2,2.5-2.1,3.5
		c-0.9,0.9-1.9,1.6-3,2c-1.1,0.4-2.5,0.6-4,0.6c-0.7,0-1.5,0-2.4-0.2c-0.6-0.2-1-0.3-1.5-0.4c-0.2-0.1-0.4-0.3-0.3-0.6
		c0.1-0.3,1.1-2.9,1.2-3.2c0.2-0.4,0.6-0.3,0.6-0.3c0.3,0.1,0.5,0.2,0.9,0.3c0.4,0.1,0.9,0.1,1.3,0.1c0.7,0,1.4-0.1,1.9-0.3
		c0.7-0.2,1.1-0.6,1.5-1.1c0.4-0.5,0.8-1.3,1.1-2.2c0.4-1,0.7-2.3,1-3.9l3.6-19.9h-3.6c-0.4,0.1-0.6-0.1-0.5-0.4l0.6-3.3
		c0.1-0.5,0.5-0.5,0.5-0.4h3.7l0.2-1.1c0.5-3.2,1.6-5.6,3.3-7.2c1.6-1.6,3.9-2.4,6.9-2.4C178.7,120.5,179.4,120.5,180,120.6z
		 M109.5,155.1v-33.6c0-0.3-0.2-0.5-0.5-0.5h-4.4c-0.3,0-0.5,0.2-0.5,0.4v33.6c0,0.3,0.2,0.5,0.5,0.5h4.4
		C109.2,155.6,109.5,155.4,109.5,155.1z M56.1,153.3c-0.1-0.1-0.2-0.2-0.1-0.6l1.1-3c0.2-0.5,0.6-0.3,0.7-0.2
		c0.1,0.1,0.2,0.1,0.4,0.2c0.2,0.1,0.3,0.2,0.6,0.3c3.2,2,6.2,2,7.2,2c2.4,0,3.9-1.2,3.9-2.9v-0.3c0-1.9-2.4-2.6-5.2-3.4l-0.6-0.2
		c-3.8-1.1-7.9-2.6-7.9-7.2v-0.1c0-4.4,3.7-7.5,9-7.5l0.4,0c3.1,0,6.1,0.9,8.3,2.1c0.2,0.1,0.4,0.3,0.3,0.6
		c-0.1,0.3-1.1,2.8-1.2,3.1c-0.2,0.5-0.8,0.2-0.8,0.2c-1.9-1-4.9-1.8-7.4-1.8c-2.2,0-3.7,1.1-3.7,2.7v0.1c0,1.8,2.5,2.6,5.4,3.5
		l0.5,0.2c3.8,1.2,7.9,2.8,7.9,7.2v0.4c0,4.6-3.5,7.5-9,7.5c-2.7,0-5.3-0.4-8.1-1.8l-0.3-0.2C56.9,153.8,56.5,153.6,56.1,153.3
		C56.1,153.3,56.1,153.3,56.1,153.3z M139.9,153.3c-0.1-0.1-0.2-0.2-0.1-0.6l1.1-3c0.2-0.5,0.6-0.3,0.7-0.2l0.2,0.1
		c0.2,0.1,0.4,0.3,0.7,0.4c3.2,2,6.2,2,7.2,2c2.4,0,3.9-1.2,3.9-2.9v-0.3c0-1.9-2.4-2.6-5.2-3.4l-0.6-0.2c-3.8-1.1-7.9-2.6-7.9-7.2
		v-0.1c0-4.4,3.7-7.5,9-7.5l0.6,0c3,0,6,0.9,8.1,2.1c0.2,0.1,0.4,0.3,0.3,0.6c-0.1,0.3-1,2.8-1.1,3.1c-0.2,0.5-0.7,0.2-0.7,0.2
		c-1.9-1-4.7-1.8-7.2-1.8c-2.2,0-3.6,1.1-3.6,2.7v0.1c0,1.8,2.4,2.6,5.2,3.5l0.5,0.2c3.7,1.2,7.7,2.8,7.7,7.2v0.4
		c0,4.6-3.5,7.5-9,7.5c-2.7,0-5.3-0.4-8.1-1.8l-0.3-0.2C140.8,153.8,140.4,153.6,139.9,153.3C140,153.3,140,153.3,139.9,153.3
		C139.9,153.3,139.9,153.3,139.9,153.3z M199.4,134.3c1,1.1,1.7,2.5,2.2,4c0.5,1.5,0.7,3.2,0.7,5c0,1.8-0.2,3.5-0.7,5
		c-0.5,1.5-1.2,2.9-2.2,4c-1,1.1-2.2,2-3.7,2.7c-1.5,0.6-3.2,1-5.1,1c-1.9,0-3.7-0.3-5.1-1c-1.5-0.6-2.7-1.6-3.7-2.7
		c-1-1.1-1.7-2.5-2.2-4c-0.5-1.5-0.7-3.2-0.7-5c0-1.8,0.2-3.5,0.7-5c0.5-1.5,1.2-2.9,2.2-4c1-1.1,2.2-2.1,3.7-2.7
		c1.5-0.7,3.2-1,5.1-1c1.9,0,3.7,0.3,5.1,1C197.2,132.3,198.4,133.2,199.4,134.3z M240.3,150.9c0,0,0.4-0.2,0.6,0.3l1.2,3.2
		c0.2,0.4-0.2,0.6-0.2,0.6c-1.8,0.7-4.3,1.2-6.8,1.2c-4.2,0-7.3-1.2-9.5-3.5c-2.1-2.3-3.2-5.4-3.2-9.3c0-1.8,0.3-3.5,0.8-5
		c0.5-1.5,1.3-2.9,2.3-4c1-1.1,2.3-2.1,3.9-2.7c1.5-0.7,3.3-1,5.3-1c1.3,0,2.6,0.1,3.6,0.2c1.1,0.2,2.6,0.5,3.2,0.8
		c0.1,0,0.4,0.2,0.3,0.5c-0.3,0.8-0.5,1.5-0.8,2.1l-0.4,1c-0.2,0.5-0.6,0.3-0.6,0.3c-1.6-0.5-3.1-0.7-5.1-0.7
		c-2.4,0-4.1,0.8-5.3,2.3c-1.2,1.5-1.8,3.5-1.8,6.1c0,2.9,0.7,5,2.1,6.4c1.3,1.3,3.2,2,5.5,2c0.9,0,1.8-0.1,2.6-0.2
		C238.8,151.4,239.6,151.2,240.3,150.9z M263.3,133.9c0.7,0.7,1.7,2.2,2.1,3.7c1,3.3,0.6,6.2,0.5,6.7l0,0.1c0,0.4-0.5,0.4-0.5,0.4
		l-16.2,0c0.1,2.4,0.7,4.1,1.9,5.2c1.2,1.1,3,1.8,5.5,1.9c3.5,0,5.2-0.6,6.3-1l0.3-0.1c0,0,0.5-0.2,0.6,0.3l1.1,2.9
		c0.2,0.5,0,0.7-0.1,0.8c-1,0.5-3.5,1.6-8.2,1.6c-2.3,0-4.3-0.3-5.9-0.9c-1.6-0.6-3-1.5-4.1-2.6c-1.1-1.1-1.9-2.5-2.3-4
		c-0.5-1.5-0.7-3.2-0.7-5c0-1.8,0.2-3.5,0.7-5c0.5-1.6,1.2-2.9,2.2-4.1c1-1.2,2.2-2.1,3.7-2.8c1.5-0.7,3.3-1,5.3-1
		c1.7,0,3.3,0.4,4.6,0.9C261.2,132.1,262.3,132.9,263.3,133.9z M133.5,133.9c0.7,0.7,1.7,2.2,2.1,3.7c1,3.3,0.6,6.2,0.5,6.7l0,0.1
		c0,0.4-0.5,0.4-0.5,0.4l-16.2,0c0.1,2.4,0.7,4.1,1.9,5.2c1.2,1.1,3,1.8,5.5,1.9c3.5,0,5.2-0.6,6.3-1l0.3-0.1c0,0,0.4-0.2,0.6,0.3
		l1.1,2.9c0.2,0.5,0,0.7-0.1,0.8c-1,0.5-3.5,1.6-8.2,1.6c-2.3,0-4.3-0.3-5.9-0.9c-1.6-0.6-3-1.5-4.1-2.6c-1.1-1.1-1.9-2.5-2.3-4
		c-0.5-1.5-0.7-3.2-0.7-5c0-1.8,0.2-3.5,0.7-5c0.5-1.6,1.2-2.9,2.2-4.1c1-1.2,2.2-2.1,3.7-2.8c1.5-0.7,3.3-1,5.3-1
		c1.7,0,3.3,0.4,4.6,0.9C131.4,132.1,132.5,132.9,133.5,133.9z M88.1,139.8c1.1,0,1.9,0,2.6,0.1c0,0,1.3,0.1,2.8,0.3v-0.7
		c0-2.2-0.5-3.2-1.4-3.9c-0.9-0.7-2.3-1.1-4.1-1.1c0,0-4.1-0.1-7.3,1.7c-0.1,0.1-0.3,0.1-0.3,0.1s-0.4,0.1-0.5-0.3l-1.2-3.1
		c-0.2-0.4,0.1-0.6,0.1-0.6c1.5-1.1,5.2-1.8,5.2-1.8c1.2-0.2,3.2-0.4,4.5-0.4c3.4,0,5.9,0.8,7.7,2.3c1.8,1.5,2.7,3.9,2.7,7.2l0,14.9
		c0,0,0,0.4-0.4,0.5c-0.4,0.1-0.8,0.2-1.2,0.3c-0.6,0.1-2.6,0.5-4.2,0.8c-1.7,0.3-3.4,0.4-5.1,0.4c-1.6,0-3.1-0.1-4.4-0.4
		c-1.3-0.3-2.5-0.8-3.4-1.4c-0.9-0.7-1.7-1.5-2.2-2.5c-0.5-1-0.8-2.3-0.8-3.7c0-1.4,0.3-2.7,0.9-3.8c0.6-1.1,1.4-2,2.4-2.7
		c1-0.7,2.2-1.2,3.5-1.6C85.2,140,86.6,139.8,88.1,139.8z M221.4,131.3c0.1,0,0.4,0.2,0.2,0.6c-0.2,0.4-0.9,2.6-1.2,3.3
		c-0.1,0.3-0.3,0.5-0.6,0.4c0,0-0.9-0.2-1.8-0.2c-0.6,0-1.4,0.1-2.2,0.3c-0.7,0.2-1.4,0.6-2,1.2c-0.6,0.6-1.1,1.3-1.4,2.3
		c-0.4,1-0.8,4.1-0.8,4.1v11.8c0,0.1,0,0.2-0.1,0.3c-0.1,0.1-0.2,0.1-0.3,0.1h-4c-0.3,0-0.5-0.2-0.5-0.5v-23.5
		c0-0.3,0.2-0.5,0.4-0.5h4.1c0,0,0.5,0.2,0.4,0.5v1.9c0.7-0.8,1.8-1.5,2.8-2c1-0.4,2.1-0.8,4.2-0.7
		C219.7,130.9,221.1,131.2,221.4,131.3z"/>
</g>
</svg>
