<?xml version="1.0" encoding="utf-8"?>
<!-- Generator: Adobe Illustrator 24.0.1, SVG Export Plug-In . SVG Version: 6.00 Build 0)  -->
<svg version="1.1" id="Layer_1" xmlns="http://www.w3.org/2000/svg" xmlns:xlink="http://www.w3.org/1999/xlink" x="0px" y="0px"
	 viewBox="0 0 300 300" style="enable-background:new 0 0 300 300;" xml:space="preserve">
<style type="text/css">
	.st0{fill:#FFFFFF;stroke:#000000;stroke-miterlimit:10;}
</style>
<g>
	<title>file_type_tailwind</title>
	<path class="st0" d="M97.2,118.9C105,87.6,124.6,72,155.8,72c46.9,0,52.7,35.2,76.2,41c15.6,3.9,29.3-2,41-17.6
		c-7.8,31.2-27.3,46.9-58.6,46.9c-46.9,0-52.7-35.2-76.2-41C122.6,97.4,109,103.2,97.2,118.9z M38.6,189.2
		c7.8-31.2,27.3-46.9,58.6-46.9c46.9,0,52.7,35.2,76.2,41c15.6,3.9,29.3-2,41-17.6c-7.8,31.2-27.3,46.9-58.6,46.9
		c-46.9,0-52.7-35.2-76.2-41C64,167.7,50.4,173.6,38.6,189.2z"/>
</g>
</svg>
