<?xml version="1.0" encoding="utf-8"?>
<!-- Generator: Adobe Illustrator 24.0.1, SVG Export Plug-In . SVG Version: 6.00 Build 0)  -->
<svg version="1.1" id="Layer_1" xmlns="http://www.w3.org/2000/svg" xmlns:xlink="http://www.w3.org/1999/xlink" x="0px" y="0px"
	 viewBox="0 0 200 200" style="enable-background:new 0 0 200 200;" xml:space="preserve">
<style type="text/css">
	.st0{fill:none;stroke:#FFFFFF;stroke-width:9;stroke-linejoin:round;stroke-miterlimit:133.3333;}
</style>
<g>
	<path class="st0" d="M100,10C49,10,7.8,51.3,7.8,102.3c0,40.8,26.4,75.3,63.1,87.5c4.6,0.8,6.3-2,6.3-4.4c0-2.2-0.1-9.5-0.1-17.2
		c-23.2,4.3-29.2-5.6-31-10.8c-1-2.7-5.5-10.8-9.5-13c-3.2-1.7-7.8-6-0.1-6.1c7.3-0.1,12.5,6.7,14.2,9.5c8.3,14,21.6,10,26.9,7.6
		c0.8-6,3.2-10,5.9-12.3c-20.5-2.3-42-10.3-42-45.5c0-10,3.6-18.3,9.5-24.8c-0.9-2.3-4.2-11.8,0.9-24.4c0,0,7.7-2.4,25.4,9.5
		c7.4-2.1,15.2-3.1,23.1-3.1s15.7,1,23.1,3.1c17.6-12,25.4-9.5,25.4-9.5c5.1,12.7,1.8,22.1,0.9,24.4c5.9,6.5,9.5,14.6,9.5,24.8
		c0,35.4-21.6,43.2-42.1,45.5c3.3,2.9,6.2,8.4,6.2,17.1c0,12.3-0.1,22.3-0.1,25.4c0,2.4,1.7,5.3,6.3,4.4
		c18.3-6.2,34.2-17.9,45.5-33.6c11.3-15.7,17.3-34.5,17.3-53.9C192.2,51.3,151,10,100,10z"/>
</g>
</svg>
