<?xml version="1.0" encoding="utf-8"?>
<!-- Generator: Adobe Illustrator 24.0.1, SVG Export Plug-In . SVG Version: 6.00 Build 0)  -->
<svg version="1.1" id="Layer_1" xmlns="http://www.w3.org/2000/svg" xmlns:xlink="http://www.w3.org/1999/xlink" x="0px" y="0px"
	 viewBox="0 0 200 200" style="enable-background:new 0 0 200 200;" xml:space="preserve">
<style type="text/css">
	.st0{fill:none;stroke:#FFFFFF;stroke-width:9;stroke-linecap:round;stroke-linejoin:round;stroke-miterlimit:133.3333;}
</style>
<g>
	<path class="st0" d="M80.1,159.5H42.5c-11.1,0-16.7,0-20.9-2.2c-3.7-1.9-6.8-4.9-8.7-8.7c-2.2-4.2-2.2-9.8-2.2-20.9V52.4
		c0-11.1,0-16.7,2.2-20.9c1.9-3.7,4.9-6.8,8.7-8.7c4.2-2.2,9.8-2.2,20.9-2.2h115c11.1,0,16.7,0,20.9,2.2c3.7,1.9,6.8,4.9,8.7,8.7
		c2.2,4.2,2.2,9.8,2.2,20.9v17.8 M185.2,53l-50.1,33.4c-12.7,8.5-19.1,12.7-25.9,14.4c-6.1,1.5-12.4,1.5-18.5,0
		c-6.9-1.6-13.2-5.9-25.9-14.4l-52.6-35 M119.8,179.3l20.1-4c1.7-0.3,2.6-0.5,3.4-0.8c0.7-0.3,1.4-0.7,2.1-1.1
		c0.7-0.5,1.3-1.1,2.6-2.4l41.2-41.2c5.5-5.5,5.5-14.3,0-19.8c-5.5-5.5-14.3-5.5-19.8,0l-41.2,41.2c-1.3,1.3-1.9,1.9-2.4,2.6
		c-0.4,0.6-0.8,1.3-1.1,2.1c-0.3,0.8-0.5,1.7-0.8,3.4L119.8,179.3z"/>
</g>
</svg>
