<?xml version="1.0" encoding="utf-8"?>
<!-- Generator: Adobe Illustrator 24.0.1, SVG Export Plug-In . SVG Version: 6.00 Build 0)  -->
<svg version="1.1" id="Layer_1" xmlns="http://www.w3.org/2000/svg" xmlns:xlink="http://www.w3.org/1999/xlink" x="0px" y="0px"
	 viewBox="0 0 200 200" style="enable-background:new 0 0 200 200;" xml:space="preserve">
<style type="text/css">
	.st0{fill:#FFFFFF;}
</style>
<g>
	<g>
		<g>
			<path class="st0" d="M145.5,160.9H54.3c-2.8,0-5.2,2.3-5.2,5.2c0,2.8,2.3,5.2,5.2,5.2h91.2c2.8,0,5.2-2.3,5.2-5.2
				C150.7,163.2,148.4,160.9,145.5,160.9z"/>
		</g>
	</g>
	<g>
		<g>
			<path class="st0" d="M145.5,138.2H54.3c-2.8,0-5.2,2.3-5.2,5.2c0,2.8,2.3,5.2,5.2,5.2h91.2c2.8,0,5.2-2.3,5.2-5.2
				C150.7,140.5,148.4,138.2,145.5,138.2z"/>
		</g>
	</g>
	<g>
		<g>
			<path class="st0" d="M99.9,28.7c-12.3,0-22.3,10-22.3,22.3c0,12.3,10,22.2,22.3,22.2s22.3-10,22.3-22.3S112.2,28.7,99.9,28.7z
				 M99.9,62.8c-6.5,0-11.9-5.4-11.9-11.9s5.3-11.9,11.9-11.9c6.6,0,11.9,5.4,11.9,11.9C111.8,57.5,106.5,62.8,99.9,62.8z"/>
		</g>
	</g>
	<g>
		<g>
			<path class="st0" d="M129.5,84.4c-18.9-7.3-40.1-7.3-59,0c-6.2,2.4-10.3,8.6-10.3,15.3v21c0,2.8,2.3,5.2,5.1,5.2h69.4
				c2.8,0,5.2-2.3,5.2-5.2v-21C139.8,93,135.7,86.8,129.5,84.4z M129.5,115.6h-59V99.8c0-2.5,1.5-4.8,3.7-5.7
				c16.5-6.4,35.1-6.4,51.6,0c2.2,0.9,3.7,3.2,3.7,5.7L129.5,115.6L129.5,115.6z"/>
		</g>
	</g>
	<g>
		<g>
			<path class="st0" d="M155.3,7h-86c-4,0-7.7,1.5-10.5,4.3L34,36.1c-2.8,2.8-4.3,6.6-4.3,10.5V178c0,8.2,6.7,14.9,14.9,14.9h110.7
				c8.2,0,14.9-6.7,14.9-14.9V22C170.2,13.7,163.5,7,155.3,7z M60.1,24.6v12.8H47.3L60.1,24.6z M159.9,62.3h-19.2
				c-2.8,0-5.2,2.3-5.2,5.2c0,2.8,2.3,5.2,5.2,5.2h19.2v9.2h-7c-2.8,0-5.2,2.3-5.2,5.2c0,2.8,2.3,5.2,5.2,5.2h7V178
				c0,2.5-2.1,4.6-4.6,4.6H44.5c-2.5,0-4.6-2.1-4.6-4.6V47.8h25.3c2.8,0,5.2-2.3,5.2-5.2V17.3h84.9c2.5,0,4.6,2.1,4.6,4.6V62.3z"/>
		</g>
	</g>
</g>
</svg>
