<?xml version="1.0" encoding="utf-8"?>
<!-- Generator: Adobe Illustrator 24.0.1, SVG Export Plug-In . SVG Version: 6.00 Build 0)  -->
<svg version="1.1" id="Layer_1" xmlns="http://www.w3.org/2000/svg" xmlns:xlink="http://www.w3.org/1999/xlink" x="0px" y="0px"
	 viewBox="0 0 600 150" style="enable-background:new 0 0 600 150;" xml:space="preserve">
<style type="text/css">
	.st0{fill:#FFFFFF;stroke:#000000;stroke-miterlimit:10;}
</style>
<path class="st0" d="M1.7,119.7v-17l13.6-14.6h65.8v17l-13.6,14.5H1.7z M78.8,105.2V90.6H15.3v14.6H78.8z"/>
<path class="st0" d="M85.7,119.7V49.4l13.6-14.5h36.3L146.9,47v50.9l-20.4,21.8H85.7z M135.6,107.6l9.1-9.7V47l-9.1-9.7H99.3v70.3
	H135.6z M112.9,93.1V51.8h15.9l2.3,2.4v36.4l-2.3,2.4H112.9z"/>
<path class="st0" d="M162.8,119.7l-11.3-12.1V76.1l20.4-21.8h25l11.3,12.1v31.5l-20.4,21.8H162.8z M196.9,107.6l9.1-9.7V66.4
	l-9.1-9.7h-25l-9.1,9.7v31.5l9.1,9.7H196.9z M178.7,95.5l-4.6-4.9v-17l4.6-4.9h11.3l4.5,4.9v17l-4.5,4.9H178.7z M183.3,93.1V80.9
	h-6.8v9.7l2.3,2.4H183.3z"/>
<path class="st0" d="M212.8,119.7V66.4l11.3-12.1h27.2l9.1,9.7v14.5l-11.3,12.1h-11.4v17l-11.3,12.1H212.8z M235.5,107.6V68.8h11.3
	l2.3,2.4v7.3h9.1V64l-6.8-7.3h-27.2v50.9H235.5z"/>
<path class="st0" d="M265,119.7V66.4l4.5-4.9H265V47l11.3-12.1h13.6v14.5l-4.5,4.9h4.5v53.3l-11.3,12.1H265z M287.6,49.4V37.3h-11.3
	v12.1H287.6z M287.6,107.6V56.7h-11.3v50.9H287.6z"/>
<path class="st0" d="M305.8,119.7l-11.3-12.1V76.1l20.4-21.8h36.3v53.3l-11.3,12.1H305.8z M348.9,107.6V56.7h-34.1l-9.1,9.7v31.5
	l9.1,9.7H348.9z M321.7,95.5l-4.5-4.9v-17l4.5-4.9h15.9v26.7H321.7z M326.2,93.1V80.9h-6.8v9.7l2.3,2.4H326.2z"/>
<path class="st0" d="M355.7,119.7V66.4l11.3-12.1h34.1l11.3,12.1v41.2l-11.3,12.1h-13.6V80.9h-6.8v26.7l-11.3,12.1H355.7z
	 M410.2,107.6V66.4l-9.1-9.7h-34.1v50.9h11.3V68.8h15.9l4.5,4.9v33.9H410.2z"/>
<path class="st0" d="M417,119.7V49.4l13.6-14.5h36.3L478.3,47v50.9l-20.4,21.8H417z M466.9,107.6l9.1-9.7V47l-9.1-9.7h-36.3v70.3
	H466.9z M444.2,93.1V51.8h15.9l2.3,2.4v36.4l-2.3,2.4H444.2z"/>
<path class="st0" d="M494.2,119.7l-11.3-12.1V76.1l20.4-21.8h25l11.3,12.1v21.8l-4.5,4.9h4.5v14.5l-11.3,12.1H494.2z M537.3,107.6
	V95.5h-29.5l-2.3-2.4v-4.9h27.2l4.6-4.8v-17l-9.1-9.7h-25l-9.1,9.7v31.5l9.1,9.7H537.3z M505.5,78.5v-7.3l2.3-2.4H526l2.3,2.4v7.3
	H505.5z"/>
<path class="st0" d="M556.9,119.7l-12.5-53.3h-0.3l11.3-12.1h14.5l3.4,14.5h0.3v-2.4L585,54.3h15l-12.5,53.3h-0.3l-11.3,12.1H556.9z
	 M584.7,107.6l11.9-50.9h-10.2l-8.2,35.2h-2.3l-8.2-35.2h-11.3l11.9,50.9H584.7z"/>
</svg>
